<?xml version="1.0" encoding="utf-8"?>
<svg width="16" height="16" viewBox="0 0 13 16" fill="none" xmlns="http://www.w3.org/2000/svg">
  <path d="M 2.203 2.281 L 6.516 6.594 L 10.797 2.281 C 11.172 1.906 11.828 1.906 12.203 2.281 C 12.609 2.687 12.609 3.312 12.203 3.719 L 7.922 8 L 12.203 12.281 C 12.609 12.687 12.609 13.312 12.203 13.719 C 11.828 14.094 11.172 14.094 10.797 13.719 L 6.516 9.406 L 2.203 13.719 C 1.828 14.094 1.172 14.094 0.797 13.719 C 0.391 13.312 0.391 12.687 0.797 12.281 L 5.078 8 L 0.797 3.719 C 0.391 3.312 0.391 2.687 0.797 2.281 C 1.172 1.906 1.828 1.906 2.203 2.281 Z" style="fill: rgb(190, 189, 189);"/>
</svg>